<svg xmlns="http://www.w3.org/2000/svg" xmlns:xlink="http://www.w3.org/1999/xlink" width="500" zoomAndPan="magnify" viewBox="0 0 375 374.999991" height="500" preserveAspectRatio="xMidYMid meet" version="1.0"><defs><clipPath id="957f41e488"><path d="M 67.683594 162 L 188 162 L 188 268 L 67.683594 268 Z M 67.683594 162 " clip-rule="nonzero"/></clipPath><clipPath id="1729139a90"><path d="M 187 106.921875 L 307.683594 106.921875 L 307.683594 213 L 187 213 Z M 187 106.921875 " clip-rule="nonzero"/></clipPath></defs><g clip-path="url(#957f41e488)"><path fill="#8c52ff" d="M 148.371094 237.199219 L 148.371094 251.78125 L 82.316406 221.09375 L 82.316406 209.261719 L 148.371094 178.574219 L 148.371094 193.160156 L 98.417969 215.039062 L 98.417969 215.316406 Z M 187.597656 162.367188 L 77.136719 162.367188 C 71.921875 162.367188 67.695312 166.59375 67.695312 171.808594 L 67.695312 258.546875 C 67.695312 263.761719 71.921875 267.988281 77.136719 267.988281 L 156.933594 267.988281 L 187.597656 162.367188 " fill-opacity="1" fill-rule="nonzero"/></g><g clip-path="url(#1729139a90)"><path fill="#ffffff" d="M 292.703125 166.117188 L 226.648438 196.390625 L 226.648438 181.804688 L 277.703125 159.925781 L 277.703125 159.648438 L 226.648438 137.765625 L 226.648438 123.183594 L 292.703125 153.457031 Z M 218.265625 106.976562 L 187.597656 212.601562 L 297.882812 212.601562 C 303.097656 212.601562 307.324219 208.371094 307.324219 203.15625 L 307.324219 116.417969 C 307.324219 111.203125 303.097656 106.976562 297.882812 106.976562 L 218.265625 106.976562 " fill-opacity="1" fill-rule="nonzero"/></g></svg>